Coordinates
version=1
nRows=26
nColumns=24
inDegrees=yes

Units are S.I. units (second, meters, Newtons, ...)
Angles are in degrees.

endheader
time	pelvis_tilt	pelvis_list	pelvis_rotation	pelvis_tx	pelvis_ty	pelvis_tz	hip_flexion_r	hip_adduction_r	hip_rotation_r	knee_angle_r	ankle_angle_r	subtalar_angle_r	mtp_angle_r	hip_flexion_l	hip_adduction_l	hip_rotation_l	knee_angle_l	ankle_angle_l	subtalar_angle_l	mtp_angle_l	lumbar_extension	lumbar_bending	lumbar_rotation
      0.55400000	     -2.30492334	      7.38098016	      4.64409291	     -0.79557535	      0.98826792	      0.25435150	     27.73090414	     -9.09254362	     -9.39138448	      0.21354333	      1.85025537	     -4.89157863	     -0.47436253	    -12.82448237	      8.47653111	     -5.85791581	     -5.66328028	     11.04760188	     -1.33671827	      0.11456364	     -9.47886335	     -8.60634166	     -3.25981164
      0.55816667	     -2.14611616	      7.30048891	      4.70199947	     -0.78944923	      0.98793791	      0.25457120	     27.60526508	     -9.00329685	     -9.22217383	     -0.35153815	      1.64579071	     -5.41997551	     -0.67261146	    -13.19558028	      8.28065669	     -5.75899021	     -5.99139139	     11.01528426	     -1.32179609	      0.10002642	     -9.63058219	     -8.44628642	     -3.28367568
      0.56233333	     -1.93152110	      7.16376153	      4.81547524	     -0.78324873	      0.98777595	      0.25469603	     27.37381347	     -8.88033684	     -9.16841861	     -0.90635662	      1.45281404	     -5.94319302	     -0.86455191	    -13.60039543	      8.00202208	     -5.63608986	     -6.37574073	     11.03722004	     -1.24343089	      0.10069630	     -9.83936557	     -8.19292107	     -3.41666318
      0.56650000	     -1.70973696	      7.01592265	      4.91940623	     -0.77698015	      0.98766251	      0.25484904	     27.11806724	     -8.73728479	     -9.13298205	     -1.45734434	      1.19639609	     -6.45831080	     -1.03831809	    -14.00780670	      7.70978476	     -5.52226453	     -6.76334066	     11.02346947	     -1.17883538	      0.11715009	    -10.04725729	     -7.92802120	     -3.55115606
      0.57066667	     -1.41808126	      6.83654068	      5.00519616	     -0.77064893	      0.98769298	      0.25504324	     26.76508849	     -8.54688741	     -9.12082537	     -1.98895454	      0.91799299	     -6.96850072	     -1.23911212	    -14.47831155	      7.37507281	     -5.44020353	     -7.17330532	     10.99286778	     -1.09812820	      0.16334228	    -10.31957668	     -7.60833875	     -3.69788515
      0.57483333	     -1.30599928	      6.73593164	      5.13658565	     -0.76441294	      0.98748233	      0.25521005	     26.62536260	     -8.46063571	     -9.09499678	     -2.56847473	      0.54576947	     -7.48321399	     -1.30419536	    -14.71472693	      7.13369791	     -5.24988845	     -7.66605084	     10.94438112	     -1.09953689	      0.19048014	    -10.42075664	     -7.42513956	     -3.73701727
      0.57900000	     -0.96825606	      6.52091895	      5.17390855	     -0.75795845	      0.98767270	      0.25557084	     26.17536028	     -8.19155760	     -9.05945629	     -3.01018476	      0.04079853	     -8.09236355	     -1.42779927	    -15.19752738	      6.75312613	     -5.27843973	     -8.12575590	     10.80592069	     -0.99483145	      0.28507577	    -10.72172219	     -7.06302446	     -3.93993701
      0.58316667	     -0.76487270	      6.35019004	      5.25632359	     -0.75156836	      0.98769799	      0.25588144	     25.87845484	     -7.99279734	     -9.04226975	     -3.47836848	     -0.51970457	     -8.67627645	     -1.50888817	    -15.49747005	      6.42581726	     -5.20571863	     -8.67071081	     10.67969001	     -0.96875646	      0.39144218	    -10.89235067	     -6.78320768	     -3.99928476
      0.58733333	     -0.50581673	      6.17251845	      5.27773333	     -0.74513442	      0.98783206	      0.25633227	     25.51454867	     -7.75181926	     -8.99777068	     -3.90584872	     -1.19665818	     -9.25577845	     -1.57961996	    -15.84339080	      6.09183208	     -5.22779221	     -9.23254226	     10.53231946	     -0.87276638	      0.56806831	    -11.11435461	     -6.49782704	     -4.07803722
      0.59150000	     -0.35054094	      6.00664958	      5.33930371	     -0.73868313	      0.98786972	      0.25669855	     25.25297245	     -7.54721125	     -8.98861672	     -4.33289274	     -1.89712241	     -9.86664656	     -1.60851576	    -16.04838786	      5.77984899	     -5.16583251	     -9.85126962	     10.32205448	     -0.91187345	      0.68761015	    -11.20809979	     -6.22746132	     -4.07425772
      0.59566667	     -0.16551666	      5.82044459	      5.34703358	     -0.73220307	      0.98798940	      0.25721993	     24.94956692	     -7.28965812	     -8.93484413	     -4.71184559	     -2.69944428	    -10.48190836	     -1.62225289	    -16.25757709	      5.44673162	     -5.19195014	    -10.51512606	     10.07692204	     -0.90596988	      0.83185309	    -11.33780698	     -5.94845758	     -4.09855054
      0.59983333	      0.17348112	      5.59280992	      5.24928810	     -0.72569037	      0.98834828	      0.25801691	     24.47040709	     -6.92475280	     -8.80482202	     -5.02634468	     -3.57098339	    -11.09271448	     -1.60754094	    -16.61089252	      5.05959540	     -5.41874685	    -11.20334635	      9.81012127	     -0.73222424	      1.19538296	    -11.64439168	     -5.63515777	     -4.06736456
      0.60400000	      0.36611745	      5.36287877	      5.16783149	     -0.71909063	      0.98855084	      0.25876551	     24.14379216	     -6.57668696	     -8.68588645	     -5.34173059	     -4.46442952	    -11.71322952	     -1.54725824	    -16.78193427	      4.68975100	     -5.60558943	    -11.94078314	      9.45444221	     -0.67312648	      1.79882520	    -11.75812256	     -5.32673686	     -3.95648048
      0.60816667	      0.53499842	      5.19332039	      5.08263668	     -0.71264203	      0.98875097	      0.25952169	     23.87171293	     -6.29733250	     -8.55768686	     -5.69602034	     -5.40018476	    -12.33800032	     -1.48781594	    -16.88313827	      4.39458243	     -5.71714336	    -12.76261080	      9.11596069	     -0.72430717	      2.29476269	    -11.87647193	     -5.09668674	     -3.91599176
      0.61233333	      0.62937355	      4.97745106	      4.92941493	     -0.70603990	      0.98885481	      0.26045891	     23.67605475	     -5.94064562	     -8.35993715	     -6.02733946	     -6.32671796	    -12.98051958	     -0.48399408	    -16.87869339	      4.06101485	     -5.99262023	    -13.62355309	      8.62274850	     -0.79642157	      9.23413743	    -11.86463125	     -4.84005695	     -3.64639957
      0.61650000	      0.73605137	      4.79377747	      4.87069492	     -0.69954023	      0.98910350	      0.26106692	     23.46028429	     -5.68628810	     -8.33357668	     -6.38780794	     -7.18957728	    -13.39545038	     -0.49587274	    -16.85071146	      3.76453060	     -6.04393381	    -14.54775312	      8.12319318	     -0.99984544	      9.26805926	    -11.89864502	     -4.57896590	     -3.57857334
      0.62066667	      0.95924446	      4.56513882	      4.67410114	     -0.69303027	      0.98950336	      0.26209056	     23.12327016	     -5.30130912	     -8.13460062	     -6.69981649	     -8.12676233	    -13.96207588	     -0.49647731	    -16.91324505	      3.41017491	     -6.35495729	    -15.53292562	      7.64552828	     -0.96492356	      9.41329470	    -12.06504005	     -4.30533382	     -3.41433597
      0.62483333	      1.07298131	      4.35010338	      4.47971921	     -0.68650103	      0.98979260	      0.26305054	     22.92222122	     -4.95234687	     -7.95931216	     -7.06376180	     -8.98085243	    -14.43841035	     -0.49327250	    -16.82602642	      3.09094671	     -6.61760215	    -16.57733345	      7.08081004	     -1.05795577	      9.63068493	    -12.09648753	     -4.05101108	     -3.18107802
      0.62900000	      1.15417263	      4.12392772	      4.32455528	     -0.67997852	      0.99009998	      0.26387820	     22.75323665	     -4.62393673	     -7.85237485	     -7.45321555	     -9.72186026	    -14.84399213	     -0.49390470	    -16.65612991	      2.76042599	     -6.81972086	    -17.70368115	      6.45709490	     -1.28660788	      9.79890789	    -12.08691900	     -3.76569853	     -2.96882424
      0.63316667	      1.29035025	      3.88645314	      4.00713709	     -0.67346042	      0.99044480	      0.26513952	     22.55309004	     -4.20257398	     -7.55089578	     -7.84207606	    -10.51061470	    -15.28848556	     -0.48998539	    -16.52235698	      2.42045272	     -7.27295931	    -18.87579511	      5.81175649	     -1.27805503	     10.22645005	    -12.14420351	     -3.52433020	     -2.63365591
      0.63733333	      1.35340419	      3.65941270	      3.83830748	     -0.66699714	      0.99081041	      0.26596946	     22.41524369	     -3.88458057	     -7.45255137	     -8.27412018	    -11.10777181	    -15.55905844	     -0.49578588	    -16.24606923	      2.08879982	     -7.47498955	    -20.14546391	      5.09714970	     -1.59047367	     10.47449742	    -12.12163056	     -3.24504051	     -2.40141557
      0.64150000	      1.44141128	      3.41383048	      3.55635900	     -0.66054491	      0.99117761	      0.26704636	     22.28313658	     -3.49973503	     -7.25045850	     -8.74179681	    -11.70156576	    -15.87962842	     -0.50694906	    -15.97401911	      1.74339772	     -7.84220073	    -21.45957611	      4.35263412	     -1.77085603	     10.87662457	    -12.13258979	     -2.95789938	     -2.08013471
      0.64566667	      1.51530706	      3.16805574	      3.34784762	     -0.65408365	      0.99161858	      0.26789250	     22.14248298	     -3.16863906	     -7.16345269	     -9.21736992	    -12.07884947	    -15.84593024	     -0.51245089	    -15.64423014	      1.39170447	     -8.08544834	    -22.83001614	      3.49496045	     -2.06985133	     11.01243641	    -12.12787289	     -2.65773532	     -1.93287265
      0.64983333	      1.42051634	      2.96281080	      2.93281904	     -0.64769458	      0.99165897	      0.26940194	     22.26137568	     -2.76555077	     -6.73374292	     -9.78339117	    -12.48384998	    -16.18479717	     -1.04756963	    -15.08792771	      1.08688808	     -8.63081462	    -24.30826947	      2.64001172	     -2.31631567	     18.78447099	    -11.92649397	     -2.50416482	     -1.47860652
      0.65400000	      1.55321411	      2.68977809	      2.74484357	     -0.64134716	      0.99224005	      0.27017239	     22.05024358	     -2.42491836	     -6.71312598	    -10.27456403	    -12.71346748	    -16.12732824	     -1.04743604	    -14.72850370	      0.68341862	     -8.86182223	    -25.82617966	      1.76360836	     -2.65876366	     18.78936733	    -12.00241412	     -2.14907328	     -1.29806945
      0.65816667	      1.61659899	      2.39778590	      2.47370950	     -0.63504403	      0.99267691	      0.27125106	     21.92279977	     -2.01023589	     -6.53674706	    -10.74983670	    -13.06219191	    -16.29377204	     -1.06057286	    -14.25651849	      0.25270825	     -9.20267276	    -27.42695327	      0.92015136	     -2.96410644	     18.85025419	    -12.01189510	     -1.84015313	     -0.86028038
